# xmcd CD database file
#
# Track frame offsets:
#	150
#	13470
#	41092
#	54430
#	67130
#	80592
#	93640
#	105795
#	121262
#	125725
#	144475
#	173350
#	196095
#	210935
#
# Disc length: 3080 seconds
#
# Revision: 3
# Processed by: cddbd v1.5.1PL2 Copyright (c) Steve Scherf et al.
# Submitted via: CDex 1.50beta10
#
DISCID=bd0c060e
DTITLE=Various Artist - Real Blues
DYEAR=1900
DGENRE=Blues
TTITLE0=Robert Johnson - I believe I'll dust my broom
TTITLE1=Willie Dixon - Back Door Man
TTITLE2=Muddy Waters - Mannish Boy
TTITLE3=Big Bill Broonzy - Rockin Chair Blues
TTITLE4=Bessie Smith - Nobody knows you when you're down and out
TTITLE5=Mississippi John Hurt - Nobody's Dirty Business
TTITLE6=Lonnie Johnson - Mr Johnsons Blues
TTITLE7=Mamie Smith - Crazy Blues
TTITLE8=Leadbelly - Black Betty
TTITLE9=Keb Mo - Come on in my kitchen
TTITLE10=Jimmie Vaughan - Dengue Woman Blues
TTITLE11=Allman Brother's band - Desert Blues
TTITLE12=The Black Sorrows - Deadline Blues
TTITLE13=Tommy Emmanuel - Workin' Man Blues
EXTD=
EXTT0=
EXTT1=
EXTT2=
EXTT3=
EXTT4=
EXTT5=
EXTT6=
EXTT7=
EXTT8=
EXTT9=
EXTT10=
EXTT11=
EXTT12=
EXTT13=
PLAYORDER=
